<svg id="undraw_mathematics_4otb" xmlns="http://www.w3.org/2000/svg" width="620" height="682.114" viewBox="0 0 620 682.114">
  <path id="Path_67" data-name="Path 67" d="M272.882,744.557c0,25.68,138.79,46.5,310,46.5s310-20.82,310-46.5c0-18.18-69.57-33.93-170.96-41.57-41.81-3.16-89.05-4.93-139.04-4.93-20.55,0-40.63.3-60.05.87C380.362,703.127,272.882,721.957,272.882,744.557Z" transform="translate(-272.882 -108.943)" fill="#3f3d56"/>
  <ellipse id="Ellipse_1" data-name="Ellipse 1" cx="119" cy="14.5" rx="119" ry="14.5" transform="translate(231 616.114)" opacity="0.1"/>
  <ellipse id="Ellipse_2" data-name="Ellipse 2" cx="112.5" cy="120" rx="112.5" ry="120" transform="translate(238 401.114)" fill="#3f3d56"/>
  <path id="Path_86" data-name="Path 86" d="M70,0H0V64H70Z" transform="translate(315 592.114)" fill="#0088a9"/>
  <path id="Path_68" data-name="Path 68" d="M431.5,607.614l4,22-26,4-17-10,1-16Z" transform="translate(-208)" fill="#555"/>
  <path id="Path_69" data-name="Path 69" d="M577.414,303.557s2,23,7,24-11,41-11,41h-24l-19-5,9-22s12-16,3-29S577.414,303.557,577.414,303.557Z" transform="translate(-222.914 -108.943)" fill="#a0616a"/>
  <path id="Path_70" data-name="Path 70" d="M577.414,303.557s2,23,7,24-11,41-11,41h-24l-19-5,9-22s12-16,3-29S577.414,303.557,577.414,303.557Z" transform="translate(-222.914 -108.943)" fill="#ee8e9e" opacity="0.782"/>
  <path id="Path_71" data-name="Path 71" d="M711.867,479.557s26,50,5,60-26,9-26,12,4,2,2,7,4,25-2,37-4,21-4,21,0,1-2,5-3,7-2,9,7,15,1,18-37,5-40,0,3-8,0-11-5-4-3-6,4-27,4-27-5-29-3-33,5-8,3-11-4-2-5-6-3-13-3-13l-11-1-26,5s-29,32-61,42c0,0-9,9-12,9s-3,0-2,2,4,2,2,4-5-1-3,2,4,3,2,5,1,13,1,14,9,95,6,97-45,8-48,0,2-18,2-18-15-120-11-128,18-44,93-67c0,0,21-4,21-7s2-22,6-23,27-2,27-2l29,9,40-7Z" transform="translate(-307.367 -108.943)" fill="#2f2e41"/>
  <path id="Path_72" data-name="Path 72" d="M553.867,647.557l5,18s4,29-1,36c-3.927,5.5-10.94,12.231-23.945,13.412a16.071,16.071,0,0,1-16.779-11.118,5.007,5.007,0,0,1-.277-1.294c0-2,3-26,3-26l5-25,1-7Z" transform="translate(-184.367 -108.943)" fill="#2f2e41"/>
  <path id="Path_73" data-name="Path 73" d="M752.856,733.557s5-5,6,0,5,26-2,27-74,11-81,7-20-10-12-13,31-12,31-12,13-17,15-18,13,1,18,5S752.856,733.557,752.856,733.557Z" transform="translate(-529.356 -108.943)" fill="#2f2e41"/>
  <circle id="Ellipse_3" data-name="Ellipse 3" cx="31" cy="31" r="31" transform="translate(299.5 157.614)" fill="#ee8e9e"/>
  <path id="Path_74" data-name="Path 74" d="M532.089,363.557l12-13,13.3-26s9.7-3,11.7,2,38,21,38,21-9,84-5,92,11,40,5,43-34,0-43,4-35,4-42-1-9-9-16-6c-5.959,2.554-19.891-84.761-23.9-110.781a11.844,11.844,0,0,1,4.908-11.51c8.973-6.294,25.133-17.14,27.994-15.709C519.089,343.557,532.089,363.557,532.089,363.557Z" transform="translate(-198.589 -108.943)" fill="#528c9a"/>
  <path id="Path_75" data-name="Path 75" d="M603.863,359.557h0a11.86,11.86,0,0,0-8.911,10.2l-8.089,72.8s20,43,30,14S603.863,359.557,603.863,359.557Z" transform="translate(-313.363 -108.943)" fill="#528c9a"/>
  <path id="Path_76" data-name="Path 76" d="M614.883,449.557l-22-6s-4,28-8,28,14,16,23,14,22-9,23-14-9-26-9-26Z" transform="translate(-322.383 -108.943)" fill="#528c9a"/>
  <path id="Path_77" data-name="Path 77" d="M575.95,306.93c-2.108-4.648-1.742-10.07-3.485-14.867a17.727,17.727,0,0,0-26.953-8.381c-2.242,1.6-4.489,3.844-7.226,3.539-2.947-.329-5.575-3.616-8.284-2.411-3,1.335-2.192,6.717-5.234,7.96-1.6.654-3.494-.353-4.417-1.816a11.225,11.225,0,0,1-1.286-4.976c-.42-4.265-.8-8.779,1.051-12.645a30.3,30.3,0,0,0,2.028-4.09,13.994,13.994,0,0,0,.386-4.034c.017-5.013.383-10.242,2.906-14.574,2.8-4.807,7.974-7.881,13.373-9.222s11.055-1.136,16.6-.666c9.163.776,18.719,2.439,25.939,8.135a10.146,10.146,0,0,1,2.493,2.62,13.523,13.523,0,0,1,1.328,3.841,79.449,79.449,0,0,0,6.968,18.277,39.656,39.656,0,0,1,3.6,7.765c.766,2.754.714,5.893-.889,8.261-1.3,1.927-3.391,2.955-5.029,4.53-1.624,1.561-2.384,4.564-4.182,5.747-1.57,1.032-3.451.3-5.053,1.4C578.52,302.725,578.372,305.8,575.95,306.93Z" transform="translate(-222.048 -104.943)" fill="#391d00"/>
  <path id="Path_78" data-name="Path 78" d="M666.382,378.557l-3-6s-44,13-53,25c0,0-22-14-34-12l-12,2,37,33,47-4Z" transform="translate(-337.882 -108.943)" fill="#f2f2f2"/>
  <path id="Path_79" data-name="Path 79" d="M625.382,372.557l41,57-59,29s-5.516,3-9.758,0l-39.242-18-37-53,37,19s4-8,12-4Z" transform="translate(-294.882 -108.943)" fill="#0088a9"/>
  <path id="Path_80" data-name="Path 80" d="M639.406,473.557l-8-21s-18-23-8-34,21,32,21,32Z" transform="translate(-371.906 -108.943)" fill="#a0616a"/>
  <path id="Path_81" data-name="Path 81" d="M574.766,470.206,557.31,456.054s-27.11-10.865-23.979-25.4S567.552,447.8,567.552,447.8Z" transform="translate(-214.964 -108.943)" fill="#a0616a"/>
  <path id="Path_82" data-name="Path 82" d="M517.526,369.057h1s15.5-18.5,18.5,6.5,13,108-13,111-44.5-12.5-44.5-12.5-19-29-12-29c3.387,0,12.6-1.521,21-1,8.963.556,17.016,3.081,16.5.5C504.026,439.557,489.526,376.057,517.526,369.057Z" transform="translate(-114.526 -108.943)" opacity="0.1"/>
  <path id="Path_83" data-name="Path 83" d="M515.088,349.557l4-2s16,3,19,28,13,108-13,111-61-4-61-4-7-38,0-38,43,5,42,0S487.088,356.557,515.088,349.557Z" transform="translate(-110.588 -108.943)" fill="#528c9a"/>
  <path id="Path_84" data-name="Path 84" d="M356,353.114l-11.027-16.9L338,364.114l18,8Z" transform="translate(-74)" fill="#528c9a"/>
  <circle id="Ellipse_4" data-name="Ellipse 4" cx="27" cy="27" r="27" transform="translate(481.527 58.114)" fill="#f2f2f2"/>
  <rect id="Rectangle_2" data-name="Rectangle 2" width="64" height="64" transform="translate(476.527 286.114)" fill="#f2f2f2"/>
  <path id="Path_85" data-name="Path 85" d="M372,0,355.8,28.057,339.6,56.114H404.4L388.2,28.057Z" transform="translate(-124)" fill="#f2f2f2"/>
</svg>
