<svg xmlns="http://www.w3.org/2000/svg" xmlns:xlink="http://www.w3.org/1999/xlink" width="1059.11" height="789.363" viewBox="0 0 1059.11 789.363">
  <defs>
    <linearGradient id="linear-gradient" x1="0.5" y1="1" x2="0.5" gradientUnits="objectBoundingBox">
      <stop offset="0" stop-color="gray" stop-opacity="0.251"/>
      <stop offset="0.54" stop-color="gray" stop-opacity="0.122"/>
      <stop offset="1" stop-color="gray" stop-opacity="0.102"/>
    </linearGradient>
  </defs>
  <g id="undraw_studying_s3l7" transform="translate(0)">
    <path id="Path_1" data-name="Path 1" d="M78.461,406.81c.19,1.12.38,2.24.59,3.36,6.78,38.14,17.85,74.91,34.31,108.67q.81,1.68,1.65,3.36a310.57,310.57,0,0,0,38.66,59.62c8.2,9.89,17.14,19.28,27.77,26.06,14.9,9.5,32.32,13.36,49.44,16.52,17.79,3.29,35.81,6,53.79,9q9.56,1.56,19,3.27c17.37,3.14,34.61,6.77,51.44,11.58,20.81,6,41,13.73,60,24.68q2.28,1.3,4.51,2.67c1.49.9,3,1.82,4.45,2.76s2.91,1.87,4.35,2.82l2.22,1.5c.73.48,1.45,1,2.17,1.48,2.14,1.46,4.25,3,6.36,4.48l.08.06q2.085,1.5,4.15,3c7.79,5.77,15.41,11.81,23,17.87l4.79,3.83q3.71,2.94,7.42,5.87c1.45,1.15,2.92,2.29,4.38,3.43,1.06.83,2.11,1.66,3.19,2.48,5.41,4.17,10.89,8.25,16.48,12.15,1.33.93,2.68,1.86,4,2.77a210.9,210.9,0,0,0,35.54,19.58l.16.07a141.008,141.008,0,0,0,18.88,6.51,113.026,113.026,0,0,0,11.12,2.41,98.28,98.28,0,0,0,30.15.52c19.69-2.79,38.14-12,57.78-15.08,40.52-6.29,79.87,14,118,29.93q14,5.86,28.31,11,9.48,3.42,19.05,6.51a599.783,599.783,0,0,0,119.53,25.57c16.58,1.81,33.87,2.67,50.75,1.37a171.423,171.423,0,0,0,19-2.47c21.37-4,41.32-12.49,57.39-28,13.35-12.69,22.77-29.28,29.95-46.59q4.33-10.43,7.63-21.34a237.994,237.994,0,0,0,7.77-34.83c.39-2.66.74-5.33,1-8q.78-6.87,1.16-13.8a239,239,0,0,0-7.11-73c-6.81-26.39-18.17-51.66-23.17-78.3-.21-1.12-.4-2.24-.59-3.36q-1-6-1.52-12.22c-2.52-32.58,7.23-64.47,14.93-96.41.27-1.12.54-2.24.8-3.36q1.25-5.31,2.37-10.63c7.13-33.78,9.08-69.93,2.75-103.64-.2-1.12-.43-2.25-.66-3.36-4.27-20.88-11.81-40.74-23.36-58.43-11.85-18.16-27.41-33.27-44-46.55q-12.15-9.7-25.13-18.15-9.33-6.06-19-11.47c-52.09-29-111.52-43.17-170.28-40q-4.67.24-9.32.64-4.88.42-9.73,1c-37.83,4.37-74.64,15.2-111.23,27.05q-18.39,6-36.72,12-8.16,2.66-16.31,5.25c-26.65,8.41-53.74,16-81.08,21.72q-9.51,2-19,3.65a449.081,449.081,0,0,1-66.59,6.86q-13,.32-26-.27-6.57-.3-13.15-.88c-45.31-3.88-89-16.89-132.87-29.11-6.34-1.77-12.69-3.53-19-5.23-8.34-2.24-16.69-4.41-25.07-6.41-52.18-12.53-98.68-5.33-147.19,20.51-11,5.87-22,12.95-28.8,23.91s-8.45,24.53-9.71,37.59c-1.78,18.58-3,37.42-3.39,56.34,0,1.12,0,2.24-.07,3.36C69.751,330.87,72.081,369.47,78.461,406.81Z" transform="translate(-61.108 -55.347)" fill="#0088a9" opacity="0.1"/>
    <path id="Path_2" data-name="Path 2" d="M436.45,518.84h3.41v3.36H436Zm38.65,0a.218.218,0,0,1,0,.08l.3,2.78v.5H445.8V522l-2.11-3.16Zm79.15,0V410.17h-34c.36-.3.73-.6,1.11-.88l.5-.38c.21-.17.42-.33.64-.48s.74-.53,1.13-.79.63-.43,1-.64l.23-.15h29.39V400.9l.79.38.84.47h.06l.18.11.52.34c.18.11.36.22.53.34.52.35,1,.73,1.55,1.12l.5.4c.34.26.66.53,1,.8,1.33,1.09,2.64,2.23,4,3.28.34.27.68.53,1,.78a25.828,25.828,0,0,0,2.26,1.48,10.74,10.74,0,0,0,1,.55l.56.26.51.22h0a21.243,21.243,0,0,0,3.72,1.18V518.84h51a1.537,1.537,0,0,1-.1.35c-.28,1-.56,2-.83,3H573.26V638.68h-.78l-.89.06-1.62.12-2.62.26-1.18.14-1.3.16h-.19c-.75.1-1.51.22-2.28.34l-.49.08-1.1.18-1.58.28h0l-3.79-.2h0l-.52.11a3.033,3.033,0,0,0-.64.13V522.2H475.47v-.5l-.3-2.78a.22.22,0,0,0,0-.08Zm-117.8,0h3.41v3.36H436Zm40.78,0,.34,3.36H444.64l-2.24-3.36Zm77,0V410.17h-34c.36-.3.73-.6,1.11-.88l.5-.38c.21-.17.42-.33.64-.48s.74-.53,1.13-.79.63-.43,1-.64l.23-.15h29.41V400.9l.79.38.84.47h.06l.18.11.52.34c.18.11.36.22.53.34.52.35,1,.73,1.55,1.12l.5.4c.34.26.66.53,1,.8,1.33,1.09,2.64,2.23,4,3.28.34.27.68.53,1,.78a25.828,25.828,0,0,0,2.26,1.48,10.74,10.74,0,0,0,1,.55l.56.26.51.22h0a21.243,21.243,0,0,0,3.72,1.18V518.84h51a1.537,1.537,0,0,1-.1.35c-.28,1-.57,2-.84,3H573.26V638.67l-.78.05-.89.06-1.62.12-2.62.26-1.18.14-1.3.16h-.19c-.75.1-1.51.22-2.28.34l-.49.08-1.1.18-1.58.28h0l-3.79-.2h0l-.52.11a3.033,3.033,0,0,0-.64.13V522.2H477.57l-.36-3.36ZM296.57,292.54H82.34c0-1.12,0-2.24.07-3.36H296.57V157.24c6.36,1.7,12.71,3.46,19,5.23V289.18h233l.59-.64-.89-1h0l-86.66-95.11q13,.6,26,.27l66.64,73.1V185.87q9.54-1.65,19-3.65v79.9l97.43-106.87c12.23-4,24.46-8.07,36.72-12L574.97,288.54l.59.64H818.63v-173q4.86-.55,9.73-1,4.65-.41,9.32-.64V289.18h170.28V154.58q9.69,5.4,19,11.47V289.18h92.61c.23,1.11.46,2.24.66,3.36h-93.19V406.81h88.03c-.26,1.12-.53,2.24-.8,3.36H1027V518.84h73.89c.19,1.12.38,2.24.59,3.36H1027V826.05a171.421,171.421,0,0,1-19,2.47V522.2H837.68V801.58q-9.58-3.11-19.05-6.51V522.2H573.29V766.3a141.005,141.005,0,0,1-18.88-6.51l-.16-.07V522.2H315.63V636.67q-9.49-1.71-19-3.27V522.2H126.96q-.84-1.68-1.65-3.36H296.57V410.17H90.94c-.21-1.12-.4-2.24-.59-3.36H296.57Zm711.38,0H837.68V406.81h170.28Zm0,226.3V410.17H837.68V518.84ZM818.62,292.54H573.29V406.81H818.63Zm0,226.3V410.17H573.29V518.84Zm-503,0H554.25V410.17H315.63Zm0-112H554.25V295.6l-3.35-3.06H315.63Zm159.47,112a.218.218,0,0,1,0,.08l.3,2.78v.5h-29.6V522l-2.11-3.16Zm-38.65,0h3.41v3.36h-3.86Zm117.8,0V410.17h-34c.36-.3.73-.6,1.11-.88l.5-.38c.21-.17.42-.33.64-.48s.74-.53,1.13-.79.63-.43,1-.64l.23-.15h29.4V400.9l.79.38.84.47h.06l.18.11.52.34c.18.11.36.22.53.34.52.35,1,.73,1.55,1.12l.5.4c.34.26.66.53,1,.8,1.33,1.09,2.64,2.23,4,3.28.34.27.68.53,1,.78a25.828,25.828,0,0,0,2.26,1.48,10.74,10.74,0,0,0,1,.55l.56.26.51.22h0a21.243,21.243,0,0,0,3.72,1.18V518.84h51a1.537,1.537,0,0,1-.1.35c-.28,1-.56,2-.83,3H573.26V638.68h-.78l-.89.06-1.62.12-2.62.26-1.18.14-1.3.16h-.19c-.75.1-1.51.22-2.28.34l-.49.08-1.1.18-1.58.28h0l-3.79-.2h0l-.52.11a3.033,3.033,0,0,0-.64.13V522.2H475.47v-.5l-.3-2.78a.22.22,0,0,0,0-.08Z" transform="translate(-73.007 -55.347)" fill="#0088a9" opacity="0.1"/>
    <path id="Path_3" data-name="Path 3" d="M334.87,213.86h-1.52a3.64,3.64,0,0,0,1.81-2.93h0c0-2.32-2.84-4.21-6.31-4.21H284.7c-3.47,0-6.31,1.89-6.31,4.21h0c0,2.31,2.84,4.21,6.31,4.21h1.47a3.65,3.65,0,0,0-1.8,2.93c0,2,2.06,3.64,4.82,4.09H276.48c-3.46,0-6.3,1.89-6.3,4.21s2.84,4.2,6.3,4.2h44.2c3.46,0,6.3-1.89,6.3-4.2,0-2-2.06-3.64-4.82-4.09h12.71c3.46,0,6.3-1.89,6.3-4.21S338.35,213.86,334.87,213.86Z" transform="translate(518.213 -55.347)" fill="#0088a9" opacity="0.1"/>
    <path id="Path_4" data-name="Path 4" d="M813.35,253.93h-1.48a3.65,3.65,0,0,0,1.81-2.94h0c0-2.31-2.84-4.2-6.31-4.2H763.22c-3.47,0-6.31,1.89-6.31,4.2h0c0,2.32,2.84,4.21,6.31,4.21h1.47a3.66,3.66,0,0,0-1.8,2.94c0,2,2.06,3.63,4.82,4.08H755c-3.46,0-6.3,1.9-6.3,4.21s2.84,4.21,6.3,4.21h44.14c3.46,0,6.3-1.89,6.3-4.21,0-2-2.06-3.64-4.82-4.08h12.73c3.46,0,6.3-1.9,6.3-4.21S816.79,253.93,813.35,253.93Z" transform="translate(-438.787 -55.347)" fill="#0088a9" opacity="0.1"/>
    <path id="Path_5" data-name="Path 5" d="M267.1,425.4h-1.48a3.66,3.66,0,0,0,1.8-2.94h0c0-2.31-2.83-4.21-6.3-4.21H216.97c-3.47,0-6.31,1.9-6.31,4.21h0c0,2.32,2.84,4.21,6.31,4.21h1.47a3.66,3.66,0,0,0-1.8,2.94c0,2,2.06,3.63,4.82,4.08H208.75c-3.47,0-6.3,1.89-6.3,4.21s2.83,4.21,6.3,4.21h44.16c3.46,0,6.3-1.9,6.3-4.21,0-2-2.07-3.64-4.82-4.09H267.1c3.46,0,6.3-1.89,6.3-4.2S270.56,425.4,267.1,425.4Z" transform="translate(653.713 -55.347)" fill="#0088a9" opacity="0.1"/>
    <path id="Path_6" data-name="Path 6" d="M648.19,713.44q3.71,2.94,7.42,5.87c1.45,1.15,2.92,2.29,4.38,3.43,1.06.83,2.11,1.66,3.19,2.48,5.41,4.17,10.89,8.25,16.48,12.15,1.33.93,2.68,1.86,4,2.77a210.892,210.892,0,0,0,35.54,19.58l.16.07V713.44Z" transform="translate(-237.987 -55.347)" fill="#65617d"/>
    <path id="Path_7" data-name="Path 7" d="M375.065,531.28l-1.12-34.55c.67-.52,1.35-1,2-1.48a184.167,184.167,0,0,1,1.76-30.81c4.52-34.55,33.87-35.3,42.15-28.17a20,20,0,0,0,3.57,2.46c-.75-4.93-1.68-9.87-2.35-14.75-3.62-26.32,2-55.93,22.42-72.94,8.55-7.11,19-11.48,28.39-17.43C488.7,323,501.995,307.33,519,297s40.9-14.2,55.74-.92c5.75,5.14,9.46,12.27,15.36,17.23,11,9.24,28.15,9.85,37.75,20.17h0c.48.52.94,1.05,1.38,1.61,8,10.26,5.81,24.81,3.26,37.54-3.07,15.32-1.8,27.6-14.94,32-.05.61-.09,1.22-.16,1.82a64.91,64.91,0,0,1-28.56,46.72l2.13.76c5.68,2,10.79,3.94,14.06,5.27,12,4.89,37.26,11.26,37.26,11.26s.6,7.2.49,17.82c8.42,9.15,22.47,25.23,26.6,34.76,6,13.9,39.9,53.71,48.93,59.72s18.82,13.14,18.82,13.14,14.3,7.89,21.07,8.64c4.69.52,19.2-2.26,19.2-2.26s57.95-71,54.19-16.52-50.05,56.33-50.05,56.33l-46.67-.75s-25.22,3.38-36.51-6c-9.64-8-59.6-51.89-75.65-71.8-.37.41-.74.81-1.13,1.2,0,0-6.39-8.26-7.15,0s4.15,12,1.51,15-10.54,13.52-10.91,17.65,10.53,21-7.9,33.8c-.29.2-.6.39-.94.58-3.29,7.49-13.75,14.82-13.75,14.82l-56.45-.75-106.51,8.26s-3.17-2.79-7.46-7.35c-5.73,5.26-13.68,9.77-22.64,7,0,0-12.8-15.39-13.18-25.53,0,0,8.28-21.41,12-27.79s-2.64-20.28-2.64-20.28-4.51-13.52-7.15-13.52-.75-9-.75-9a10.94,10.94,0,0,0,1.13-10.14C376.575,541.8,375.065,531.28,375.065,531.28Z" transform="translate(-76.142 -55.347)" fill="url(#linear-gradient)"/>
    <path id="Path_8" data-name="Path 8" d="M652.09,523.5l4,4.68h0L672.25,547l21.11,1.28,33.79,2.08s45.56-54.9,37-66.85c-3.11-4.31-3.62-10-3-15.37.08-.74.19-1.48.32-2.21a63.89,63.89,0,0,1,5.32-16.4l-1.12-.51-.72-.33-39.84-18.18-9.86-4.5a26.616,26.616,0,0,1-2.7,7.78c-.19.38-.4.76-.62,1.12-13.59,22.5-57.17,8.27-57.17,8.27Z" transform="translate(-289.317 -55.347)" fill="#ee8e9e"/>
    <path id="Path_9" data-name="Path 9" d="M756.348,495.41c.3,13.62,2.52,19.5,2.52,19.5l56.39,8.59,2.11-14.64,8.35-57.81-7.84-7.84a20.93,20.93,0,0,1-17.93-4.48c-8.21-7.1-37.34-6.35-41.82,28a190.14,190.14,0,0,0-1.78,28.68Z" transform="translate(-452.485 -55.347)" fill="#ee8e9e"/>
    <path id="Path_10" data-name="Path 10" d="M793.67,654.94s-12.69-15.31-13.07-25.39l12.7-21.29,11.2-12,20.92,40.38S811.6,660.54,793.67,654.94Z" transform="translate(-476.457 -55.347)" fill="#dfe5ee"/>
    <path id="Path_11" data-name="Path 11" d="M793.67,654.94s-12.69-15.31-13.07-25.39l12.7-21.29,11.2-12,20.92,40.38S811.6,660.54,793.67,654.94Z" transform="translate(-476.457 -55.347)" opacity="0.1"/>
    <path id="Path_12" data-name="Path 12" d="M72,722.74c1.06.83,2.11,1.66,3.19,2.48,5.41,4.17,10.89,8.25,16.48,12.15,1.33.93,2.68,1.86,4,2.77h319l94.38-3.38,75.9-.64,19-1,94.8-5a238,238,0,0,0,7.81-34.86c.39-2.66.74-5.33,1-8L603.99,693l-19,1.07-170.28,9.5-19.05,1.06-245.34,13.7-18.88,1.06h-.16Z" transform="translate(350.003 -55.347)" fill="#d48a9b"/>
    <path id="Path_13" data-name="Path 13" d="M70.84,648.25c20.81,6,41,13.73,60,24.68,1.51.87,3,1.76,4.51,2.67s3,1.82,4.45,2.76,2.91,1.87,4.35,2.82l2.22,1.5,2.17,1.48c2.14,1.47,4.25,3,6.36,4.48l.08.06q2.085,1.5,4.15,3c7.79,5.77,15.41,11.81,23,17.87q2.4,1.92,4.81,3.83l7.4,5.87c1.45,1.15,2.92,2.29,4.38,3.43,1.06.83,2.11,1.66,3.19,2.48l56-2.67h.16l18.88-.88L522.4,710l19.05-.91L711.73,701l19-.91,102.61-4.83c.39-2.66.74-5.33,1-8q.78-6.87,1.16-13.8l-104.76-37-19-6.73-17.26-6.1-31.45,1.64L590.34,629h0l-48.92,2.57-19.05,1-12.17.64h0l-2.91.16h0l-102.42,5.35h0l-1.08.07h0l-45.7,2.38h-.82l-4.57.23h0l-15.58.82-19.48,1h0l-6.42.34h0l-1.21.07-9.08.47h0l-2.59.13h0l-8.67.46h0l-3.45.19h-.83l-8.11.43-12.56.66h-.06l-3.9.2h-.42l-2.33.13-5.72.3h0l-5,.26h-.05l-5.61.29h-.09l-4.25.23h0l-3.26.17-11.57.61h0l-2.08.11h-.72l-1,.06h0l-3.39.18h0l-1.52.08h0l-11.8.61h-1.08l-17.42-.15h-.12l-66.23-.54h-6.55l-21.32-.17H86.05Z" transform="translate(223.223 -55.347)" fill="#efc6cd"/>
    <path id="Path_14" data-name="Path 14" d="M727.44,649.62l-6.16,32.77L553.8,679.87s-12.6,3.64-12.32-6.44c0,0-25.49-24.09-154.6,3.92l49.57-38.93,135.5,7.28,157.12-4.2Z" transform="translate(13.613 -55.347)" fill="#0088a9"/>
    <path id="Path_15" data-name="Path 15" d="M564.11,641.78l-5.88,35.57s-144-4.2-166.64-.28l17.11-32.49S495.77,636.46,564.11,641.78Z" transform="translate(173.863 -55.347)" fill="#fff"/>
    <path id="Path_16" data-name="Path 16" d="M564.11,641.78l-5.88,35.57s-144-4.2-166.64-.28l17.11-32.49S495.77,636.46,564.11,641.78Z" transform="translate(173.863 -55.347)" opacity="0.1"/>
    <path id="Path_17" data-name="Path 17" d="M564.11,641.65l-5.8,33.08s-142.17-3.9-164.57-.26l16.87-30.21S496.63,636.7,564.11,641.65Z" transform="translate(171.713 -55.347)" fill="#fff"/>
    <path id="Path_18" data-name="Path 18" d="M563,642.67l-5.65,30.94s-139.05-3.65-161-.24l16.5-28.27S496.99,638,563,642.67Z" transform="translate(170.213 -55.347)" opacity="0.1"/>
    <path id="Path_19" data-name="Path 19" d="M564.15,641.54l-5.68,31s-139.05-3.65-161-.24L414.01,644S498.14,636.91,564.15,641.54Z" transform="translate(167.943 -55.347)" fill="#fff"/>
    <path id="Path_20" data-name="Path 20" d="M295.428,557.41s-7.28,9.51,3.35,23.88,19.41,26.49,15.86,35.45c0,0-16-26.68-29.1-27S281.058,573.45,295.428,557.41Z" transform="translate(535.045 -55.347)" fill="#0088a9"/>
    <path id="Path_21" data-name="Path 21" d="M295.839,557.41a11.56,11.56,0,0,0-1.49,3c-12.74,15-19.53,29-7.28,29.3,11.41.32,25.09,20.72,28.37,25.88q-.17.58-.39,1.17s-16-26.68-29.1-27S281.469,573.45,295.839,557.41Z" transform="translate(534.634 -55.347)" opacity="0.1"/>
    <path id="Path_22" data-name="Path 22" d="M310.94,569.54c0,3.34.38,6.06.84,6.06s.84-2.72.84-6.06-.47-1.78-.93-1.78S310.94,566.19,310.94,569.54Z" transform="translate(506.003 -55.347)" fill="#ffd037"/>
    <path id="Path_23" data-name="Path 23" d="M313.313,573.53c2.94,1.61,5.5,2.58,5.72,2.17s-2-2-4.92-3.64-1.78-.44-2,0S310.373,571.93,313.313,573.53Z" transform="translate(498.99 -55.347)" fill="#ffd037"/>
    <path id="Path_24" data-name="Path 24" d="M264.347,557.41s7.28,9.51-3.36,23.88-19.4,26.49-15.86,35.45c0,0,16.05-26.68,29.11-27S278.717,573.45,264.347,557.41Z" transform="translate(604.555 -55.347)" fill="#0088a9"/>
    <path id="Path_25" data-name="Path 25" d="M263.939,557.41a12,12,0,0,1,1.49,3c12.74,15,19.53,29,7.28,29.3-11.41.32-25.1,20.72-28.38,25.88a12.022,12.022,0,0,0,.39,1.17s16.05-26.68,29.11-27S278.309,573.45,263.939,557.41Z" transform="translate(604.964 -55.347)" opacity="0.1"/>
    <path id="Path_26" data-name="Path 26" d="M248.81,569.54c0,3.34-.38,6.06-.84,6.06s-.84-2.72-.84-6.06.47-1.78.93-1.78S248.81,566.19,248.81,569.54Z" transform="translate(633.623 -55.347)" fill="#ffd037"/>
    <path id="Path_27" data-name="Path 27" d="M246.452,573.53c-2.94,1.61-5.51,2.58-5.73,2.17s2-2,4.92-3.64,1.78-.44,2,0S249.392,571.93,246.452,573.53Z" transform="translate(640.621 -55.347)" fill="#ffd037"/>
    <path id="Path_28" data-name="Path 28" d="M240.724,603.91l.36,3,.51,4.19.21,1.75.51,4.2.22,1.75.52,4.2,5.82,47.72c.52,4.26,7.48,7.58,15.88,7.58h30.22c8.4,0,15.35-3.32,15.87-7.58l5.83-47.72.51-4.2.21-1.75.52-4.2.21-1.75.51-4.19.37-3c.29-2.41-3.47-4.44-8.23-4.44h-61.86C244.164,599.47,240.394,601.5,240.724,603.91Z" transform="translate(569.838 -55.347)" fill="#65617d"/>
    <path id="Path_29" data-name="Path 29" d="M170.65,551.59l.51,4.2h76.56l.51-4.2Z" transform="translate(640.243 -0.057)" fill="#9d9cb5"/>
    <path id="Path_30" data-name="Path 30" d="M171.37,557.54l.51,4.2h75.11l.52-4.2Z" transform="translate(640.243 -0.057)" fill="#9d9cb5"/>
    <path id="Path_31" data-name="Path 31" d="M172.1,563.49l.51,4.19h73.66l.51-4.19Z" transform="translate(640.243 -0.057)" fill="#9d9cb5"/>
    <path id="Path_32" data-name="Path 32" d="M392.6,600.05s19.42-18.67,18.67,5.6S392.6,600.05,392.6,600.05Z" transform="translate(325.674 -55.347)" fill="#ee8e9e"/>
    <path id="Path_33" data-name="Path 33" d="M373.621,557.48c.43,1.88,2.52,5,5.78,8.91,16.84,20.28,64.75,62.43,74.14,70.25,11.2,9.34,36.22,6,36.22,6l46.3.75s45.93-1.87,49.67-56-53.77,16.43-53.77,16.43-14.4,2.76-19.05,2.24c-6.72-.74-20.91-8.58-20.91-8.58s-9.71-7.1-18.67-13.07-42.57-45.56-48.55-59.38c-3.79-8.77-16-23.11-24.43-32.41-4.84-5.35-8.43-9-8.43-9S371.011,545.9,373.621,557.48Z" transform="translate(170.262 -55.347)" fill="#ee8e9e"/>
    <path id="Path_34" data-name="Path 34" d="M559.175,557.48c.43,1.88,2.52,5,5.78,8.91,17-17.31,20.55-51.85,20.95-73.81-4.84-5.35-8.43-9-8.43-9S556.565,545.9,559.175,557.48Z" transform="translate(-15.292 -55.347)" opacity="0.1"/>
    <path id="Path_35" data-name="Path 35" d="M652.12,528.18h0L668.27,547l21.11,1.28,33.79,2.08s45.56-54.9,37-66.85c-3.11-4.31-3.62-10-3-15.37.08-.74.19-1.48.32-2.21a63.89,63.89,0,0,1,5.32-16.4l-1.12-.51-.72-.33A71.706,71.706,0,0,0,757.31,464c-.11.71-.21,1.45-.31,2.21-.35,2.7-.67,5.7-1,9-2.6,30.22-21.61,41.59-30.19,45.21a87.09,87.09,0,0,0-8.08,3.91,43.11,43.11,0,0,1-27.1,4.9c-21.18-2.78-38.45-18.17-38.45-18.17l-.09,15.15Z" transform="translate(-285.337 -55.347)" opacity="0.1"/>
    <path id="Path_36" data-name="Path 36" d="M560.9,645.61s138.91-.38,157.22-13.07,7.46-29.5,7.84-33.61,8.21-14.56,10.82-17.56-2.24-6.72-1.49-14.93,7.09,0,7.09,0c26.15-26.52,20.55-93.73,20.55-93.73s-25-6.34-37-11.21c-3.25-1.32-8.31-3.2-14-5.23l-2.11-.76c-14.67-5.25-32.11-11.18-32.11-11.18s-3.35-2.37-6.72,4.72c-1.54,3.26-3.09,8.51-4.33,16.9-.11.71-.21,1.45-.31,2.21-.35,2.7-.67,5.7-1,9-2.6,30.22-21.61,41.59-30.19,45.21a87.058,87.058,0,0,0-8.08,3.91,43.11,43.11,0,0,1-27.1,4.9c-21.18-2.78-38.45-18.17-38.45-18.17l-.09,15.15-.26,45.52Z" transform="translate(-194.763 -55.347)" fill="#dfe5ee"/>
    <path id="Path_37" data-name="Path 37" d="M661.039,586.61l2.24,14.19s55.27,13.81,76.92,17.92,68.34-1.12,71.7,7.84-14.19,21.29-14.19,21.29l-56-.75-105.68,8.22s-40.33-35.48-27.26-60.13S661.039,586.61,661.039,586.61Z" transform="translate(-288.926 -55.347)" fill="#ee8e9e"/>
    <path id="Path_38" data-name="Path 38" d="M622.4,474.58s25.4,20.91,20.54,31S622.4,474.58,622.4,474.58Z" transform="translate(-136.399 -55.347)" opacity="0.1"/>
    <path id="Path_39" data-name="Path 39" d="M587.857,512.29s25.77,44.44,24.27,47.8-8.59,15.31-8.21,6.35S587.857,512.29,587.857,512.29Z" transform="translate(-70.484 -55.347)" opacity="0.1"/>
    <path id="Path_40" data-name="Path 40" d="M609.489,520.14s6,27.63,11.95,39.21S609.489,520.14,609.489,520.14Z" transform="translate(-102.576 -55.347)" opacity="0.1"/>
    <path id="Path_41" data-name="Path 41" d="M612.32,434.94a64.6,64.6,0,0,0,49.1,33.22h.12A64.49,64.49,0,0,0,707,456.26c-15-5.42-34.22-11.94-34.22-11.94s-3.35-2.37-6.72,4.72l-50.42-23a26.731,26.731,0,0,1-3.32,8.9Z" transform="translate(-189.757 -55.347)" opacity="0.1"/>
    <path id="Path_42" data-name="Path 42" d="M585.68,401.76a64.31,64.31,0,0,0,8.5,32.06,65.069,65.069,0,0,0,9.63,12.82A64.33,64.33,0,0,0,642.97,466h.13a63.077,63.077,0,0,0,7.18.41,64.6,64.6,0,0,0,64.19-57.321,62.718,62.718,0,0,0,.41-7.289,64.6,64.6,0,1,0-129.2,0Z" transform="translate(-170.997 -55.347)" fill="#ee8e9e"/>
    <path id="Path_43" data-name="Path 43" d="M823.27,524l-6-9s-32.86-39.21-65-14.19l1.12,34.36s1.5,10.45,3.74,16a10.93,10.93,0,0,1-1.12,10.09s-1.87,9,.74,9,7.1,13.44,7.1,13.44,6.35,13.82,2.61,20.17-11.95,27.63-11.95,27.63,13.07-7.84,16.81-20.91c0,0,31.74-24.65,56.39-9Z" transform="translate(-450.417 -55.347)" opacity="0.1"/>
    <path id="Path_44" data-name="Path 44" d="M764.68,495.41c.3,13.62,2.52,19.5,2.52,19.5l56.39,8.59,2.11-14.64C818.32,501.16,791.48,476.68,764.68,495.41Z" transform="translate(-460.817 -55.347)" opacity="0.1"/>
    <path id="Path_45" data-name="Path 45" d="M823.27,522l-6-9s-32.86-39.21-65-14.19l1.12,34.36s1.5,10.45,3.74,16a10.93,10.93,0,0,1-1.12,10.09s-1.87,9,.74,9,7.1,13.44,7.1,13.44,6.35,13.82,2.61,20.17-11.95,27.63-11.95,27.63,13.07-7.84,16.81-20.91c0,0,31.74-24.65,56.39-9Z" transform="translate(-450.417 -55.347)" fill="#dfe5ee"/>
    <path id="Path_46" data-name="Path 46" d="M758.109,496.61s54.14,33.24,51.53,62.39C809.638,559,779.389,505.57,758.109,496.61Z" transform="translate(-438.276 -55.347)" opacity="0.1"/>
    <path id="Path_47" data-name="Path 47" d="M589.48,528.19l-.26,45.52c10.24.46,19.89-.87,27.52-7.5,5.31-4.62,8.4-11,10-17.9a63.41,63.41,0,0,0,1.3-16.93.909.909,0,0,0,0-.17c-.63-12.57-3.52-25.14-2-37.63s9.09-25.67,21.45-28.3c2.44-.53,5.18-.72,6.92-2.51,1.92-2,1.83-5.11,1.62-7.88l-.36-4.67c-.09-1.2-.13-2.39-.13-3.58a45.83,45.83,0,0,1,37-44.94l.4-.07c3.48-.7,7.1-1.39,10.58-.59,6.62,1.53,10.9,7.95,17,11,11.7,5.84,31.21-.55,43.46-2.56.8-.13,1.56-.28,2.29-.45a62.73,62.73,0,0,0,.41-7.29,64.6,64.6,0,1,0-120.7,32.06c-.19.38-.4.76-.62,1.12-13.59,22.5-57.17,8.27-57.17,8.27l-2.62,80.29Z" transform="translate(-222.687 -55.347)" opacity="0.1"/>
    <path id="Path_48" data-name="Path 48" d="M730.243,410.93c-6.06-3.06-10.34-9.48-17-11-3.47-.8-7.09-.11-10.59.58l-.4.08a45.87,45.87,0,0,0-36.83,48.53l.36,4.67c.22,2.76.31,5.89-1.63,7.87-1.73,1.79-4.47,2-6.91,2.5-12.36,2.64-19.93,15.75-21.45,28.31s1.42,25.17,2,37.79-1.74,26.55-11.28,34.84c-15,13-37.8,5.6-57.65,4.41,8.78,0,15.36-9.06,15.84-17.82s-3.42-17.1-7.15-25-7.47-16.4-6.64-25.14c1.14-12,10.6-21.61,14.22-33.16,4.22-13.44.15-27.87-1.76-41.84-3.59-26.16,2-55.61,22.25-72.52,8.48-7.07,18.85-11.42,28.17-17.34,16.7-10.59,29.87-26.12,46.75-36.42s40.58-14.12,55.31-.92c5.7,5.11,9.38,12.2,15.24,17.13,11.45,9.65,29.65,9.83,38.83,21.67,7.9,10.19,5.76,24.66,3.23,37.31-3.37,16.87-1.47,30-19.5,33C761.453,410.39,741.953,416.78,730.243,410.93Z" transform="translate(-234.76 -55.347)" fill="#603556"/>
    <path id="Path_49" data-name="Path 49" d="M581.483,561.45c14.45,1.77,28.77,2.68,39.29-6.44,9.54-8.29,11.89-22.21,11.28-34.84s-3.53-25.25-2-37.8,9.09-25.66,21.45-28.3c2.44-.52,5.17-.71,6.91-2.5,1.93-2,1.85-5.12,1.63-7.88l-.36-4.67a45.86,45.86,0,0,1,36.83-48.52l.4-.08c3.5-.69,7.12-1.38,10.59-.58,6.62,1.53,10.9,8,17,11,11.71,5.85,31.2-.54,43.47-2.55,18-2.95,16.12-16.1,19.5-33,1.89-9.44,3.56-19.9,1-28.84a15.721,15.721,0,0,1,1.38,1.61c7.9,10.19,5.76,24.66,3.23,37.31-3.37,16.87-1.47,30-19.5,33-12.26,2-31.76,8.4-43.47,2.55-6.06-3.06-10.34-9.48-17-11-3.47-.8-7.09-.11-10.59.58l-.4.08a45.87,45.87,0,0,0-36.83,48.53l.36,4.67c.22,2.76.31,5.89-1.63,7.87-1.73,1.79-4.47,2-6.91,2.5-12.36,2.64-19.93,15.75-21.45,28.31s1.41,25.17,2,37.79-1.74,26.55-11.28,34.84c-15,13-37.8,5.6-57.65,4.41C574.123,569.53,578.653,566.11,581.483,561.45Z" transform="translate(-234.56 -55.347)" opacity="0.1"/>
    <path id="Path_50" data-name="Path 50" d="M437.262,594.81l-61.65-23a5.87,5.87,0,0,0-7.55,3.44h0a5.87,5.87,0,0,0,3.44,7.55l61.65,23,13.22-1.32Z" transform="translate(315.501 -55.347)" fill="#5c5c8e"/>
    <path id="Path_51" data-name="Path 51" d="M369.842,573.37h0a5.87,5.87,0,0,0,3.45,7.55L434.982,604l9.92-1,1.43,1.52-13.22,1.32-61.65-23a5.87,5.87,0,0,1-3.44-7.55h0a5.87,5.87,0,0,1,2.4-2.93,6.81,6.81,0,0,0-.58,1.01Z" transform="translate(315.581 -55.347)" fill="#fff" opacity="0.1"/>
    <path id="Path_52" data-name="Path 52" d="M301.36,539.52l-4.1,10.99,10.84-1.09,2.37-.24-3.24-3.44Z" transform="translate(451.393 -0.057)" fill="#efc8c4"/>
    <path id="Path_53" data-name="Path 53" d="M368.515,601a2.619,2.619,0,0,0-.64.69,1,1,0,0,0,0,1.07,2.129,2.129,0,0,0,.59.43,2,2,0,0,1,.88,1.48l2.38-.23Z" transform="translate(390.118 -55.347)" fill="#727a9c"/>
    <path id="Path_54" data-name="Path 54" d="M712.23,665s-53.4-11.21-143,3l35.1-25.76,63.86-13.07,45.18,12Z" transform="translate(-153.037 -55.347)" fill="#fff"/>
    <path id="Path_55" data-name="Path 55" d="M712.23,665s-53.4-11.21-143,3l35.1-25.76,63.86-13.07,45.18,12Z" transform="translate(-153.037 -55.347)" opacity="0.1"/>
    <path id="Path_56" data-name="Path 56" d="M712.07,677.12s-26.89-72.74-165,.23l49.57-31.9s118.75-32.81,132.47,5Z" transform="translate(-146.617 -55.347)" fill="#fff"/>
    <path id="Path_57" data-name="Path 57" d="M712,677.07s-26.89-77.77-165,1.4l49.57-34.6s118.79-39.24,132.54,1.83Z" transform="translate(-146.547 -55.347)" opacity="0.1"/>
    <path id="Path_58" data-name="Path 58" d="M712.07,677.1s-26.89-78.92-165,.25l49.57-34.6s118.75-38.12,132.47,3Z" transform="translate(-146.617 -55.347)" fill="#fff"/>
    <path id="Path_59" data-name="Path 59" d="M712.03,677.12s-26.89-87.71-165,1.35l49.61-38.93s118.75-40,132.47,6.16Z" transform="translate(-146.577 -55.347)" opacity="0.1"/>
    <path id="Path_60" data-name="Path 60" d="M712.03,677.07s-26.89-88.78-165,.28l49.61-38.93s118.75-40,132.47,6.16Z" transform="translate(-146.577 -55.347)" fill="#fff"/>
    <path id="Path_61" data-name="Path 61" d="M976.992,668.71s33.15,35.51,3.31,52.76c0,0-3.9,4.7-9.47,2.24,0,0,1.88-1.67-1.89-4.89a22.364,22.364,0,0,1-3.55-3.9,11,11,0,0,1-2.06-6.66h0s-4.34-14.09,9.45-32.38c0,0,1.25-6.12,2.31-6.79l2.52,8.53s-6.33,1.61-8.71,6.43c0,0,8.34-6.55,9.15-5.18.16.28,1.13,4.59,1.13,4.59s-11,2.84-14.44,10.4c0,0,8.89-9.13,14.82-8.77l1.08,6.58s-11.77,2.44-16,10.9c0,0,9.62-9.23,16.16-9.44l.19,6.61s-11.43,2.6-14.92,9.66c0,0,12.19-9.53,14.86-8.14,0,0-.19,6.09-1,7.68,0,0-8.16,2-9.82,6.34,0,0,8.82-5.51,9.58-4.67,0,0-2.37,7.86-5.67,11.21,0,0,5.24-4.59,6.88-10.78,0,0,2.22,3.87,1.66,7.67,0,0,3.27-3.62-1.11-9.58,0,0,1.6-6.2,1.2-7.18,0,0,5.15,5.27,6.47,10,0,0,1-5.92-6.46-11.71v-6.66s7.18,6.61,8.66,10.7c0,0,.1-6.2-8.81-12.37l-1-6.47s6.62,5.22,9.25,9.42c0,0-1.14-5.78-9.6-11.26l-1.17-4.24s4.76,3.9,6,5.14,1.71,1,1.71,1a21,21,0,0,0-8.2-7.94S976.442,668.94,976.992,668.71Z" transform="translate(-825.879 -55.347)" fill="#0088a9" opacity="0.1"/>
    <path id="Path_62" data-name="Path 62" d="M1100.558,90.91s44.29,20,23.41,47.39c0,0-1.79,5.85-7.87,5.73,0,0,1.09-2.27-3.63-3.79a21.911,21.911,0,0,1-4.78-2.23,11,11,0,0,1-4.47-5.35h0s-9.44-11.32-3.77-33.51c0,0-1.21-6.13-.49-7.16l5.62,6.9s-5.22,3.92-5.56,9.29c0,0,5.16-9.26,6.44-8.3.26.19,2.81,3.79,2.81,3.79s-9,6.86-9.31,15.17c0,0,4.68-11.86,10.3-13.82l3.53,5.66s-9.92,6.79-10.58,16.23c0,0,5.32-12.22,11.27-14.94l2.73,6s-9.55,6.81-10,14.67c0,0,7.57-13.5,10.57-13.24,0,0,2.17,5.68,2,7.47,0,0-6.74,5-6.62,9.64,0,0,6-8.48,7-8,0,0,.85,8.16-.91,12.53,0,0,3.07-6.26,2.19-12.6,0,0,3.55,2.72,4.49,6.44,0,0,1.62-4.61-4.72-8.42,0,0-.91-6.33-1.66-7.08,0,0,6.79,2.87,9.81,6.69,0,0-1.35-5.85-10.48-8.31l-2.6-6.12s9.17,3.32,12.12,6.52c0,0-2.3-5.76-12.9-8l-3.41-5.58s8.12,2.27,12.17,5.12c0,0-3.29-4.88-13.21-6.68l-2.71-3.46s5.9,1.76,7.55,2.42,2,.27,2,.27a21,21,0,0,0-10.69-4.16S1100.2,91.31,1100.558,90.91Z" transform="translate(-1097.635 -55.347)" fill="#0088a9" opacity="0.1"/>
    <path id="Path_63" data-name="Path 63" d="M668.235,103.29s66.54,19,34.19,47.28c0,0-2.87,6-12.08,6,0,0,1.72-2.32-5.4-3.73a42.292,42.292,0,0,1-7.18-2.12,12.81,12.81,0,0,1-6.62-5.29h0s-14-11.2-4.81-33.78c0,0-1.67-6.16-.55-7.22l8.32,6.82s-8,4.11-8.67,9.54c0,0,8.07-9.49,10-8.56.39.19,4.16,3.75,4.16,3.75s-13.88,7.18-14.51,15.59c0,0,7.4-12.11,16-14.24l5.2,5.62s-15.2,7.13-16.45,16.69c0,0,8.38-12.49,17.46-15.4l4,6s-14.64,7.14-15.6,15.1c0,0,11.83-13.85,16.37-13.68,0,0,3.13,5.7,2.85,7.51,0,0-10.34,5.28-10.29,9.92,0,0,9.34-8.74,10.88-8.28,0,0,1.06,8.23-1.72,12.69,0,0,4.82-6.41,3.66-12.79,0,0,5.29,2.65,6.62,6.38,0,0,2.58-4.69-6.92-8.37,0,0-1.21-6.38-2.32-7.12,0,0,10.2,2.72,14.67,6.5,0,0-1.88-5.88-15.64-8.12l-3.78-6.12s13.8,3.12,18.18,6.27c0,0-3.33-5.76-19.33-7.76l-5-5.55s12.24,2.07,18.3,4.85c0,0-4.85-4.85-19.82-6.4l-4-3.42s8.89,1.62,11.37,2.24,3,.22,3,.22a39.39,39.39,0,0,0-16-3.92S667.655,103.71,668.235,103.29Z" transform="translate(-244.942 -55.347)" fill="#0088a9" opacity="0.1"/>
    <path id="Path_64" data-name="Path 64" d="M904.7,844.71s-33.5-35.19-3.83-52.73c0,0,3.86-4.74,9.45-2.34,0,0-1.87,1.69,1.93,4.88a22.571,22.571,0,0,1,3.59,3.86,10.93,10.93,0,0,1,2.12,6.64h0s4.49,14.05-9.13,32.47c0,0-1.19,6.13-2.24,6.82l-2.61-8.51s6.32-1.67,8.65-6.51c0,0-8.27,6.62-9.09,5.26-.17-.28-1.18-4.57-1.18-4.57s11-3,14.34-10.54c0,0-8.8,9.22-14.74,8.91l-1.14-6.57s11.74-2.55,15.91-11c0,0-9.53,9.32-16.07,9.6l-.25-6.62s11.41-2.76,14.87-9.86c0,0-12.1,9.66-14.78,8.29,0,0,.13-6.08,1-7.68,0,0,8.14-2.14,9.76-6.44,0,0-8.77,5.6-9.53,4.76,0,0,2.29-7.88,5.56-11.26,0,0-5.2,4.64-6.78,10.84,0,0-2.26-3.85-1.73-7.65,0,0-3.24,3.66,1.2,9.57,0,0-1.54,6.22-1.13,7.19,0,0-5.2-5.22-6.56-9.89,0,0-1,5.93,6.57,11.64l.1,6.66s-7.24-6.54-8.76-10.62c0,0,0,6.21,8.93,12.29l1,6.46s-6.67-5.16-9.34-9.33c0,0,1.2,5.76,9.71,11.16l1.21,4.23s-4.8-3.85-6.08-5.08-1.72-1-1.72-1a20.93,20.93,0,0,0,8.28,7.86S905.2,844.47,904.7,844.71Z" transform="translate(-677.72 -55.347)" fill="#0088a9" opacity="0.1"/>
    <path id="Path_65" data-name="Path 65" d="M621.83,56.53s-5.71,48.24-38.15,36.6c0,0-6.11.05-7.83-5.79,0,0,2.5.36,2.52-4.6a22.394,22.394,0,0,1,.69-5.23,10.92,10.92,0,0,1,3.75-5.87h0S590.77,59.22,613.68,58c0,0,5.48-3,6.68-2.62l-4.89,7.43s-5.31-3.8-10.53-2.5c0,0,10.38,2.14,9.85,3.64-.1.31-2.76,3.82-2.76,3.82s-9.35-6.6-17.35-4.35c0,0,12.71.88,16.27,5.65l-4.27,5.08s-9.46-7.42-18.67-5.21c0,0,13.26,1.4,17.65,6.25l-4.98,4.42s-9.36-7.06-17-5.16c0,0,15.16,3.16,15.82,6.09,0,0-4.77,3.78-6.53,4.18,0,0-6.84-4.91-11.18-3.41,0,0,9.9,3.18,9.75,4.3,0,0-7.53,3.26-12.22,2.9,0,0,6.89,1,12.67-1.7,0,0-1.52,4.19-4.79,6.22,0,0,4.88.15,6.61-7,0,0,5.76-2.78,6.25-3.71,0,0-.7,7.33-3.43,11.36,0,0,5.18-3,4.78-12.49l5-4.33s-.41,9.75-2.57,13.53c0,0,4.8-3.93,3.76-14.72l4.29-4.93s.29,8.42-1.21,13.14c0,0,3.67-4.6,2.39-14.6l2.49-3.63s.09,6.15,0,7.93.34,1.95.34,1.95a21,21,0,0,0,.78-11.43S621.33,56.29,621.83,56.53Z" transform="translate(-68.117 -55.347)" fill="#0088a9" opacity="0.1"/>
    <path id="Path_66" data-name="Path 66" d="M769.984,735.3s46.82-13,48.32,21.44c0,0,2.36,5.64-2.39,9.44,0,0-.61-2.44-5.21-.59a22.4,22.4,0,0,1-5.1,1.35,10.93,10.93,0,0,1-6.86-1.26h0s-14.5-2.66-24.34-23.34c0,0-4.85-3.93-5-5.19l8.73,1.71s-1.5,6.36,1.68,10.7c0,0-2-10.42-.37-10.5.33,0,4.59,1.11,4.59,1.11s-2.56,11.06,2.55,17.61c0,0-4-12.1-.93-17.2l6.34,2.09s-3.28,11.56,2.26,19.24c0,0-3.74-12.79-.9-18.69l5.94,2.89s-3,11.34,1.67,17.7c0,0-2.82-15.22-.35-16.95,0,0,5.3,3,6.33,4.46,0,0-2,8.19,1.08,11.64,0,0-.8-10.37.29-10.65,0,0,5.88,5.73,7.32,10.21,0,0-1.65-6.77-6.38-11.08,0,0,4.46-.18,7.57,2.07,0,0-1.7-4.57-9-3.44,0,0-4.76-4.29-5.81-4.38,0,0,7-2.14,11.82-1.14,0,0-4.78-3.64-13.37.32l-5.92-3s9.18-3.31,13.49-2.74c0,0-5.45-3-15,2.09l-6.18-2.11s7.68-3.45,12.62-3.85c0,0-5.65-1.65-14.42,3.32l-4.3-.93s5.66-2.42,7.35-3,1.68-1,1.68-1a21,21,0,0,0-10.83,3.6S769.954,735.85,769.984,735.3Z" transform="translate(-458.731 -55.347)" fill="#6c63ff" opacity="0.1"/>
  </g>
</svg>
